<?xml version="1.0" encoding="UTF-8"?>
<svg id="_レイヤー_1" data-name="レイヤー 1" xmlns="http://www.w3.org/2000/svg" viewBox="0 0 1183.73 768.14">
  <defs>
    <style>
      .cls-1 {
        stroke: #000;
        stroke-miterlimit: 10;
        stroke-width: 2px;
      }

      .cls-1, .cls-2 {
        fill: #fff;
      }

      .cls-2 {
        font-family: KsoKokuryuSou-83pv-RKSJ-H, KsoKokuryuSou;
        font-size: 125.63px;
        stroke: #fff;
      }

      .cls-3 {
        stroke-width: 0px;
      }
    </style>
  </defs>
  <g>
    <path class="cls-1" d="m94.7,562.11c-81.26,1.77-89.49,12.37-93.32,30.03-3.83,17.66,20.9,86.56,93.32,75.96,72.42-10.6,230.73-177.74,230.73-177.74l-115.92-116.14c-37.1-4.64-125.86-24.05-148.38,1.68-49.46,56.53,14.13,85.53,14.13,85.53h40.63c-75.96-3.53-101.97,28.05-113.05,58.29-9.26,25.26,44.16,42.39,44.16,42.39h47.69Z"/>
    <path class="cls-1" d="m1089.03,562.11c81.26,1.77,89.49,12.37,93.32,30.03,3.83,17.66-20.9,86.56-93.32,75.96-72.42-10.6-230.73-177.74-230.73-177.74l115.92-116.14c37.1-4.64,125.86-24.05,148.38,1.68,49.46,56.53-14.13,85.53-14.13,85.53h-40.63c75.96-3.53,101.97,28.05,113.05,58.29,9.26,25.26-44.16,42.39-44.16,42.39h-47.69Z"/>
    <path class="cls-3" d="m931.75,78.89c92.71,92.71,96.72,240.49,12.02,337.95-3.82,4.42-7.82,8.72-12,12.9l-338.4,338.4L248.74,423.51c-2.09-2.09-4.14-4.2-6.12-6.33-2.02-2.17-3.97-4.36-5.88-6.57-84.71-97.46-80.69-245.24,12-337.93s230.68-96.36,328.02-20.2l-6.6,6.6c2.21-2.21,4.47-4.38,6.74-6.5,3.31,2.59,6.59,5.29,9.79,8.08,2.38,2.05,4.72,4.15,7.02,6.33,1.99,1.83,3.94,3.73,5.88,5.67l-5.77-5.77c97.46-84.71,245.24-80.69,337.93,12Z"/>
  </g>
  <text class="cls-2" transform="translate(227.04 343.45)"><tspan x="0" y="0">絶対大森靖子</tspan></text>
</svg>